<?xml version="1.0" encoding="UTF-8" standalone="no"?>
<svg
   xmlns:dc="http://purl.org/dc/elements/1.1/"
   xmlns:cc="http://creativecommons.org/ns#"
   xmlns:rdf="http://www.w3.org/1999/02/22-rdf-syntax-ns#"
   xmlns:svg="http://www.w3.org/2000/svg"
   xmlns="http://www.w3.org/2000/svg"
   xmlns:sodipodi="http://sodipodi.sourceforge.net/DTD/sodipodi-0.dtd"
   xmlns:inkscape="http://www.inkscape.org/namespaces/inkscape"
   viewBox="0 0 740 740"
   width="740"
   height="740"
   version="1.1"
   id="svg423"
   sodipodi:docname="thumbnail.svg"
   inkscape:version="0.92.3 (2405546, 2018-03-11)">
  <metadata
     id="metadata427">
    <rdf:RDF>
      <cc:Work
         rdf:about="">
        <dc:format>image/svg+xml</dc:format>
        <dc:type
           rdf:resource="http://purl.org/dc/dcmitype/StillImage" />
        <dc:title>thumbnail</dc:title>
      </cc:Work>
    </rdf:RDF>
  </metadata>
  <sodipodi:namedview
     pagecolor="#ffffff"
     bordercolor="#666666"
     borderopacity="1"
     objecttolerance="10"
     gridtolerance="10"
     guidetolerance="10"
     inkscape:pageopacity="0"
     inkscape:pageshadow="2"
     inkscape:window-width="1920"
     inkscape:window-height="1043"
     id="namedview425"
     showgrid="false"
     inkscape:zoom="1.1797297"
     inkscape:cx="370"
     inkscape:cy="370"
     inkscape:window-x="0"
     inkscape:window-y="0"
     inkscape:window-maximized="1"
     inkscape:current-layer="layer1"
     inkscape:snap-global="false" />
  <defs
     id="defs32">
    <style
       id="style2">
      .cls-1 {
        fill: #fff;
      }

      .cls-12, .cls-15, .cls-2, .cls-5, .cls-6 {
        fill: none;
      }

      .cls-3 {
        fill: #003ac5;
      }

      .cls-4 {
        clip-path: url(#clip-path);
      }

      .cls-12, .cls-15, .cls-5, .cls-6 {
        stroke: #fff;
      }

      .cls-5, .cls-6 {
        stroke-width: 4px;
      }

      .cls-5 {
        stroke-dasharray: 12 12;
      }

      .cls-7 {
        mask: url(#mask);
      }

      .cls-8 {
        clip-path: url(#clip-path-2);
      }

      .cls-9 {
        mask: url(#mask-11);
      }

      .cls-10 {
        mask: url(#mask-18);
      }

      .cls-11 {
        clip-path: url(#clip-path-3);
      }

      .cls-12, .cls-15 {
        stroke-miterlimit: 10;
      }

      .cls-12 {
        stroke-width: 5.2px;
      }

      .cls-13 {
        mask: url(#mask-21);
      }

      .cls-14 {
        clip-path: url(#clip-path-4);
      }

      .cls-15 {
        stroke-width: 5.64px;
      }

      .cls-16 {
        mask: url(#mask-31);
      }

      .cls-17 {
        mask: url(#mask-37);
      }
    </style>
    <clipPath
       id="clip-path">
      <rect
         id="path-1"
         class="cls-2"
         width="720"
         height="720"
         x="0"
         y="0"
         style="fill:none" />
    </clipPath>
    <mask
       id="mask"
       x="-132.45"
       y="-179.43"
       width="983.28"
       height="1093.9"
       maskUnits="userSpaceOnUse">
      <g
         id="mask-4">
        <polygon
           id="path-3"
           class="cls-1"
           points="-132.45,-179.43 -132.45,914.47 850.82,914.47 850.82,-179.43 "
           style="fill:#ffffff" />
      </g>
    </mask>
    <clipPath
       id="clip-path-2">
      <rect
         id="path-1-2"
         data-name="path-1"
         class="cls-2"
         x="720"
         width="720"
         height="720"
         y="0"
         style="fill:none" />
    </clipPath>
    <mask
       id="mask-11"
       x="491.12"
       y="-80.75"
       width="1093.9"
       height="983.28"
       maskUnits="userSpaceOnUse">
      <g
         id="mask-4-12"
         data-name="mask-4">
        <polygon
           id="path-3-11"
           data-name="path-3"
           class="cls-1"
           points="491.12,902.52 1585.01,902.52 1585.01,-80.75 491.12,-80.75 "
           style="fill:#ffffff" />
      </g>
    </mask>
    <mask
       id="mask-18"
       x="671.12"
       y="-80.75"
       width="1093.9"
       height="983.28"
       maskUnits="userSpaceOnUse">
      <g
         id="mask-4-19"
         data-name="mask-4">
        <polygon
           id="path-3-18"
           data-name="path-3"
           class="cls-1"
           points="671.12,902.52 1765.01,902.52 1765.01,-80.75 671.12,-80.75 "
           style="fill:#ffffff" />
      </g>
    </mask>
    <clipPath
       id="clip-path-3">
      <rect
         class="cls-2"
         x="1440"
         width="720"
         height="720"
         id="rect17"
         y="0"
         style="fill:none" />
    </clipPath>
    <mask
       id="mask-21"
       x="1309.55"
       y="-189.66"
       width="983.28"
       height="1093.9"
       maskUnits="userSpaceOnUse">
      <g
         id="mask-4-22"
         data-name="mask-4">
        <polygon
           id="path-3-21"
           data-name="path-3"
           class="cls-1"
           points="1309.55,-189.66 1309.55,904.23 2292.82,904.23 2292.82,-189.66 "
           style="fill:#ffffff" />
      </g>
    </mask>
    <clipPath
       id="clip-path-4">
      <rect
         class="cls-2"
         x="2160"
         width="720"
         height="720"
         id="rect23"
         y="0"
         style="fill:none" />
    </clipPath>
    <mask
       id="mask-31"
       x="2020.18"
       y="-124.45"
       width="1093.9"
       height="983.28"
       maskUnits="userSpaceOnUse">
      <g
         id="mask-4-32"
         data-name="mask-4">
        <polygon
           id="path-3-31"
           data-name="path-3"
           class="cls-1"
           points="3114.08,-124.45 2020.18,-124.45 2020.18,858.82 3114.08,858.82 "
           style="fill:#ffffff" />
      </g>
    </mask>
    <mask
       id="mask-37"
       x="1840.18"
       y="-124.45"
       width="1093.9"
       height="983.28"
       maskUnits="userSpaceOnUse">
      <g
         id="mask-4-38"
         data-name="mask-4">
        <polygon
           id="path-3-37"
           data-name="path-3"
           class="cls-1"
           points="2934.08,-124.45 1840.18,-124.45 1840.18,858.82 2934.08,858.82 "
           style="fill:#ffffff" />
      </g>
    </mask>
  </defs>
  <title
     id="title34">thumbnail</title>
  <g
     inkscape:groupmode="layer"
     id="layer1"
     inkscape:label="background"
     transform="translate(0,20)"
     style="display:inline">
    <rect
       id="path-1-3"
       data-name="path-1"
       class="cls-3"
       x="-4.4408921e-16"
       y="-19.999996"
       width="740"
       height="740"
       style="fill:#2b2b2b;fill-opacity:1;stroke:none;stroke-width:0.50514591" />
  </g>
  <g
     inkscape:groupmode="layer"
     id="layer2"
     inkscape:label="graphics"
     style="display:inline"
     transform="translate(0,20)">
    <g
       id="g1150"
       transform="translate(38.360341,103.09342)">
      <path
         inkscape:connector-curvature="0"
         id="path1097"
         d="m 480.10365,281.25359 c 2.39752,-0.59938 19.18017,-6.59318 31.76716,-5.9938 12.58698,0.59938 119.87606,-1.19876 119.87606,-1.19876 0,0 11.19702,7.9149 13.95189,32.70872 2.75487,24.79381 20.13173,211.48912 20.13173,211.48912 0,0 2.11913,42.38259 -16.3173,42.38259 -18.43643,0 -160.4181,-3.60252 -160.4181,-3.60252 0,0 8.68843,-10.17182 7.94673,-25.53551 -0.74169,-15.36369 -8.84654,-216.98423 -10.0453,-226.874 -1.19876,-9.88978 -5.39442,-21.87738 -5.39442,-21.87738"
         style="opacity:1;fill:none;fill-opacity:1;stroke:#ffffff;stroke-width:2;stroke-miterlimit:4;stroke-dasharray:none;stroke-opacity:1" />
      <path
         inkscape:connector-curvature="0"
         id="path1099"
         d="m 483.69993,305.82819 -183.41038,-1.79814 -14.38513,197.49582 207.68529,9.29039"
         style="opacity:1;fill:none;fill-opacity:1;stroke:#ffffff;stroke-width:2;stroke-miterlimit:4;stroke-dasharray:none;stroke-opacity:1" />
      <path
         inkscape:connector-curvature="0"
         id="path1101"
         d="m 311.08821,446.95016 -2.11913,24.05212 c 0,0 -0.74169,7.84078 5.08591,9.21822 5.82761,1.37743 170.58993,9.64204 170.58993,9.64204 0,0 5.08591,-0.95361 7.09908,-3.07274 2.01317,-2.11913 2.22509,-3.1787 2.22509,-3.1787"
         style="opacity:1;fill:none;fill-opacity:1;stroke:#ffffff;stroke-width:2;stroke-miterlimit:4;stroke-dasharray:none;stroke-opacity:1" />
      <path
         inkscape:connector-curvature="0"
         id="path1103"
         d="m 490.15465,399.58762 c 0,0 -2.437,-2.437 -9.90693,-2.86083 -7.46993,-0.42382 -155.17325,-7.09908 -155.17325,-7.09908 0,0 -6.62228,-1.05956 -8.15865,2.75487 -1.53637,3.81443 -2.70189,23.52234 -2.70189,23.52234"
         style="opacity:1;fill:none;fill-opacity:1;stroke:#ffffff;stroke-width:2;stroke-miterlimit:4;stroke-dasharray:none;stroke-opacity:1" />
      <path
         sodipodi:nodetypes="ccccccscccccccccc"
         inkscape:connector-curvature="0"
         id="path1105"
         d="m 329.88395,423.08197 0.59938,-4.12074 c 0,0 -0.37461,-1.6483 -1.79814,-1.79814 -1.42353,-0.14985 -18.2811,-1.04892 -18.2811,-1.04892 0,0 -1.87306,0.22477 -2.24767,3.14675 -0.37462,2.92198 -2.17276,21.57769 -2.17276,21.57769 0,0 0.89907,2.54737 3.52136,2.54737 2.62229,0 17.6068,1.42352 17.6068,1.42352 0,0 1.79814,-0.97399 1.87306,-2.39752 0.0749,-1.42353 -0.14984,-3.6712 -0.14984,-3.6712 l -4.49536,-0.59938 0.52448,-2.39753 3.29659,-0.22476 0.37462,-9.21547 -2.17276,-0.5994 0.0749,-2.17276 z"
         style="opacity:1;fill:none;fill-opacity:1;stroke:#ffffff;stroke-width:2;stroke-miterlimit:4;stroke-dasharray:none;stroke-opacity:1" />
      <path
         inkscape:connector-curvature="0"
         id="path1107"
         d="m 493.96909,474.6048 -94.93701,-5.29782 0.21192,-63.36197 93.02978,5.93356"
         style="opacity:1;fill:none;fill-opacity:1;stroke:#ffffff;stroke-width:2;stroke-miterlimit:4;stroke-dasharray:none;stroke-opacity:1" />
      <path
         inkscape:connector-curvature="0"
         id="path1109"
         d="m 488.67126,550.89347 -168.68271,-8.47652 c 0,0 -15.25773,-2.54296 -15.25773,-21.1913 0,-18.64834 0,-18.64834 0,-18.64834"
         style="opacity:1;fill:none;fill-opacity:1;stroke:#ffffff;stroke-width:2;stroke-miterlimit:4;stroke-dasharray:none;stroke-opacity:1" />
      <path
         inkscape:connector-curvature="0"
         id="path1111"
         d="m 316.17412,303.37914 c 0,0 0,-8.47652 10.17182,-8.05269 10.17182,0.42382 159.35854,2.11913 159.35854,2.11913"
         style="opacity:1;fill:none;fill-opacity:1;stroke:#ffffff;stroke-width:2;stroke-miterlimit:4;stroke-dasharray:none;stroke-opacity:1" />
      <rect
         transform="rotate(-2.2514674)"
         y="329.8562"
         x="524.94385"
         height="25.429554"
         width="6.7812142"
         id="rect1113"
         style="opacity:1;fill:none;fill-opacity:1;stroke:#ffffff;stroke-width:2;stroke-miterlimit:4;stroke-dasharray:none;stroke-opacity:1" />
      <rect
         style="opacity:1;fill:none;fill-opacity:1;stroke:#ffffff;stroke-width:2;stroke-miterlimit:4;stroke-dasharray:none;stroke-opacity:1"
         id="rect1115"
         width="6.7812142"
         height="25.429554"
         x="571.00763"
         y="331.45517"
         transform="rotate(-2.2514674)" />
      <rect
         style="opacity:1;fill:none;fill-opacity:1;stroke:#ffffff;stroke-width:2;stroke-miterlimit:4;stroke-dasharray:none;stroke-opacity:1"
         id="rect1117"
         width="6.7812142"
         height="25.429554"
         x="526.51495"
         y="472.98062"
         transform="rotate(-2.2514674)" />
      <rect
         transform="rotate(-2.2514674)"
         y="474.57959"
         x="572.57874"
         height="25.429554"
         width="6.7812142"
         id="rect1119"
         style="opacity:1;fill:none;fill-opacity:1;stroke:#ffffff;stroke-width:2;stroke-miterlimit:4;stroke-dasharray:none;stroke-opacity:1" />
      <path
         inkscape:connector-curvature="0"
         id="path1121"
         d="m 557.64893,370.82044 c 0,0 -2.80785,-16.42326 6.67526,-16.74113 9.4831,-0.31787 11.65521,8.31759 11.65521,17.48282 z"
         style="opacity:1;fill:none;fill-opacity:1;stroke:#ffffff;stroke-width:2;stroke-miterlimit:4;stroke-dasharray:none;stroke-opacity:1" />
      <path
         style="opacity:1;fill:none;fill-opacity:1;stroke:#ffffff;stroke-width:2;stroke-miterlimit:4;stroke-dasharray:none;stroke-opacity:1"
         d="m 566.12545,518.31185 c 0,0 -2.80785,-16.42326 6.67526,-16.74113 9.4831,-0.31787 11.65521,8.31759 11.65521,17.48282 z"
         id="path1123"
         inkscape:connector-curvature="0" />
    </g>
    <g
       id="g1190"
       transform="translate(-25.429554,-32.210768)">
      <g
         transform="translate(41.956623,-142.65252)"
         id="g1134">
        <path
           style="opacity:1;fill:none;fill-opacity:1;stroke:#ffffff;stroke-width:2;stroke-miterlimit:4;stroke-dasharray:none;stroke-opacity:1"
           d="m 106.55365,216.17054 25.2562,-4.97353 c 0,0 3.60253,-0.26489 5.53623,2.78135 1.93371,3.04625 2.48998,7.62887 2.48998,7.62887 l 24.84369,144.00915 c 0,0 0.33715,3.52136 -1.91053,5.20711 -2.24767,1.68576 -13.59844,3.40898 -13.59844,3.40898"
           id="path1079"
           inkscape:connector-curvature="0"
           sodipodi:nodetypes="ccscccc" />
        <path
           style="opacity:1;fill:none;fill-opacity:1;stroke:#ffffff;stroke-width:2;stroke-miterlimit:4;stroke-dasharray:none;stroke-opacity:1"
           d="m 94.98998,384.70073 c 0,0 -3.549542,1.32446 -8.476518,1.05957 -4.926976,-0.26489 -6.370633,-5.16538 -6.370633,-5.16538 L 57.640322,234.29552 c 0,0 -1.059564,-2.75487 0.635739,-5.50974 1.695304,-2.75487 24.369989,-7.20504 24.369989,-7.20504"
           id="path1081"
           inkscape:connector-curvature="0"
           sodipodi:nodetypes="csccsc" />
        <path
           style="opacity:1;fill:none;fill-opacity:1;stroke:#ffffff;stroke-width:2;stroke-miterlimit:4;stroke-dasharray:none;stroke-opacity:1"
           d="m 95.943589,384.64775 -14.14519,-81.0567 53.190151,-10.17182 13.98625,82.22223 z"
           id="path1083"
           inkscape:connector-curvature="0"
           sodipodi:nodetypes="ccccc" />
        <path
           style="opacity:1;fill:none;fill-opacity:1;stroke:#ffffff;stroke-width:2;stroke-miterlimit:4;stroke-dasharray:none;stroke-opacity:1"
           d="m 81.656083,216.58683 2.632293,19.61591 c 0,0 0.05298,0.9536 0.423826,0.9536 0.370847,0 4.715063,-1.16552 4.715063,-1.16552 l -0.847652,-5.56271 2.066151,-0.42383 0.529783,4.07933 1.377434,-0.10596 c 0,0 -0.582761,-2.54296 0.264891,-2.75487 0.847652,-0.21191 4.291237,-1.00659 4.291237,-1.00659 0,0 0.741696,-0.10595 1.006587,1.05957 0.264891,1.16552 0.317869,1.16552 0.317869,1.16552 l 1.324456,-0.26489 -0.69169,-3.94923 2.004179,-0.41207 1.04891,4.96362 5.88142,-1.10511 c 0,0 0.2435,0.0375 0.14985,-0.44953 -0.0936,-0.487 -3.22112,-20.33284 -3.22112,-20.33284 0,0 -0.22477,-0.6743 -0.80542,-0.59938 -0.58065,0.0749 -20.922667,4.20576 -20.922667,4.20576 0,0 -1.405041,0.43232 -1.5454,2.08922 z"
           id="path1085"
           inkscape:connector-curvature="0"
           sodipodi:nodetypes="ccscccccscsccccccccccc" />
        <path
           style="opacity:1;fill:none;fill-opacity:1;stroke:#ffffff;stroke-width:2;stroke-miterlimit:4;stroke-dasharray:none;stroke-opacity:1"
           d="m 82.115106,386.44484 c 0,0 5.993803,38.95973 5.094733,41.35725 -0.899071,2.39752 -1.798141,3.29659 -1.798141,3.29659 0,0 -18.730636,11.83776 -16.033424,32.51638 3.314519,25.41132 16.507051,33.18115 30.568401,32.36654 14.779005,-0.85618 37.011735,-17.23218 34.014825,-36.41236 -2.9969,-19.18017 -19.77955,-34.76406 -38.660027,-29.96901"
           id="path1087"
           inkscape:connector-curvature="0"
           sodipodi:nodetypes="cscsssc" />
        <ellipse
           style="opacity:1;fill:none;fill-opacity:1;stroke:#ffffff;stroke-width:2;stroke-miterlimit:4;stroke-dasharray:none;stroke-opacity:1"
           id="path1089"
           cx="95.451317"
           cy="464.13953"
           rx="26.222889"
           ry="25.848276" />
        <path
           style="opacity:1;fill:none;fill-opacity:1;stroke:#ffffff;stroke-width:2;stroke-miterlimit:4;stroke-dasharray:none;stroke-opacity:1"
           d="m 96.500234,497.92959 1.947986,13.6359 c 0,0 2.39752,4.6452 5.39442,4.49535 2.9969,-0.14984 99.0476,-13.78575 99.0476,-13.78575 0,0 4.94489,-0.74922 2.84706,-11.9876 -2.09783,-11.23838 -37.61112,-274.81589 -37.61112,-274.81589 0,0 -2.24767,-4.94489 -3.74612,-5.09473 -1.49845,-0.14985 -25.17398,3.59628 -25.17398,3.59628"
           id="path1091"
           inkscape:connector-curvature="0" />
        <path
           style="opacity:1;fill:none;fill-opacity:1;stroke:#ffffff;stroke-width:2;stroke-miterlimit:4;stroke-dasharray:none;stroke-opacity:1"
           d="m 100.77082,427.05286 7.49225,-3.52136 30.26871,21.42785 -2.84706,38.13557 -18.05633,11.98761 -15.2842,4.12074 -7.791942,-2.09783"
           id="path1093"
           inkscape:connector-curvature="0" />
        <path
           style="opacity:1;fill:none;fill-opacity:1;stroke:#ffffff;stroke-width:2;stroke-miterlimit:4;stroke-dasharray:none;stroke-opacity:1"
           d="m 121.07483,432.29744 8.3164,0.89907 c 0,0 18.88048,5.3195 17.75664,24.12506 -1.12384,18.80556 -11.91268,21.20308 -11.91268,21.20308"
           id="path1095"
           inkscape:connector-curvature="0" />
      </g>
      <g
         id="g1174">
        <path
           style="opacity:1;fill:none;fill-opacity:1;stroke:#ffffff;stroke-width:2;stroke-miterlimit:4;stroke-dasharray:none;stroke-opacity:1"
           d="M 94.702093,281.2536 63.534315,253.6821"
           id="path1152"
           inkscape:connector-curvature="0" />
        <path
           style="opacity:1;fill:none;fill-opacity:1;stroke:#ffffff;stroke-width:2;stroke-miterlimit:4;stroke-dasharray:none;stroke-opacity:1"
           d="m 99.497136,322.01146 -64.733077,9.59008"
           id="path1154"
           inkscape:connector-curvature="0" />
        <path
           style="opacity:1;fill:none;fill-opacity:1;stroke:#ffffff;stroke-width:2;stroke-miterlimit:4;stroke-dasharray:none;stroke-opacity:1"
           d="M 117.47855,366.3656 76.720683,405.9247"
           id="path1156"
           inkscape:connector-curvature="0" />
      </g>
    </g>
    <g
       id="g1195"
       transform="translate(-33.05842,-33.05842)">
      <path
         sodipodi:nodetypes="cc"
         inkscape:connector-curvature="0"
         id="path1158"
         d="m 285.30505,339.39348 c 0,32.10978 -26.03012,58.1399 -58.1399,58.1399"
         style="opacity:1;fill:none;fill-opacity:1;stroke:#ffffff;stroke-width:2;stroke-miterlimit:4;stroke-dasharray:none;stroke-opacity:1" />
      <path
         style="opacity:1;fill:none;fill-opacity:1;stroke:#ffffff;stroke-width:3.05403543;stroke-miterlimit:4;stroke-dasharray:none;stroke-opacity:1"
         d="m 315.94581,339.39348 c 0,49.0322 -39.74846,88.78066 -88.78066,88.78066"
         id="path1161"
         inkscape:connector-curvature="0"
         sodipodi:nodetypes="cc" />
      <path
         sodipodi:nodetypes="cc"
         inkscape:connector-curvature="0"
         id="path1163"
         d="m 356.0145,339.39348 c 0,71.16152 -57.68783,128.84935 -128.84935,128.84935"
         style="opacity:1;fill:none;fill-opacity:1;stroke:#ffffff;stroke-width:4.43238974;stroke-miterlimit:4;stroke-dasharray:none;stroke-opacity:1" />
    </g>
  </g>
</svg>
